Coordinates
version=1
nRows=9
nColumns=42
inDegrees=yes

Units are S.I. units (second, meters, Newtons, ...)
If the header above contains a line with 'inDegrees', this indicates whether rotational values are in degrees (yes) or radians (no).

endheader
time	pelvis_tilt	pelvis_list	pelvis_rotation	pelvis_tx	pelvis_ty	pelvis_tz	hip_flexion_r	hip_adduction_r	hip_rotation_r	knee_angle_r	knee_adduction_r	knee_angle_r_beta	ankle_angle_r	subtalar_angle_r	mtp_angle_r	hip_flexion_l	hip_adduction_l	hip_rotation_l	knee_angle_l	knee_adduction_l	knee_angle_l_beta	ankle_angle_l	subtalar_angle_l	mtp_angle_l	lumbar_extension	lumbar_bending	lumbar_rotation	arm_flex_r	arm_add_r	arm_rot_r	elbow_flex_r	pro_sup_r	wrist_flex_r	wrist_dev_r	arm_flex_l	arm_add_l	arm_rot_l	elbow_flex_l	pro_sup_l	wrist_flex_l	wrist_dev_l
      2.66000000	     16.37153520	      9.27883201	      0.62506330	      0.82043739	      0.88551238	      0.16166409	     23.10749131	    -13.58452700	    -39.71733012	     33.87303185	    -10.34047938	      0.59119593	     19.91923947	     37.67745766	     -7.50504986	    -29.77061084	     14.59789974	    -16.02669654	     21.25666966	    -11.15459359	      0.37099887	     32.10729079	     36.94640953	     -7.50504986	    -42.78371704	     -4.54228266	     -7.77578198	      1.10074034	    -12.03702600	     -1.07802783	     41.47129242	     90.00000001	      0.00000000	      0.00000000	     23.12892577	    -16.34112184	     -1.46174353	     54.07688900	     90.00000001	      0.00000000	      0.00000000
      2.67000000	     16.22420332	      9.08238402	      0.78523961	      0.83498483	      0.88438628	      0.16216994	     22.95659630	    -12.91444801	    -39.72188642	     34.19570170	    -11.07705044	      0.59682758	     19.26287417	     37.55473972	     -7.50494777	    -29.78518693	     14.01980289	    -16.11160715	     22.88859757	    -11.36231598	      0.39948139	     30.85378685	     36.74106664	     -7.50494777	    -42.41036566	     -4.17878621	     -7.64663268	      1.07550303	    -12.07735064	     -1.38591768	     41.19977965	     90.00000001	      0.00000000	      0.00000000	     22.85321697	    -16.20803615	     -1.56425649	     54.61986940	     90.00000001	      0.00000000	      0.00000000
      2.68000000	     16.05805933	      8.96836291	      0.94638633	      0.84972588	      0.88330831	      0.16261967	     23.03181877	    -12.43731432	    -39.72846797	     35.10175041	    -12.14019821	      0.61264112	     18.82252077	     37.39174215	     -7.50491766	    -29.79027194	     13.63259849	    -15.84831897	     24.46300004	    -11.70736986	      0.42695990	     30.01590014	     36.61756549	     -7.50491766	    -41.98850823	     -3.88514309	     -7.50382232	      0.97587052	    -12.17469473	     -1.46474924	     41.01805625	     90.00000001	      0.00000000	      0.00000000	     22.59291752	    -16.00949178	     -1.60426844	     54.78410657	     90.00000001	      0.00000000	      0.00000000
      2.69000000	     16.07307514	      8.77758562	      0.99279802	      0.86475189	      0.88274753	      0.16343706	     22.91051645	    -11.97449890	    -39.72420264	     36.26489648	    -13.16453774	      0.63294185	     18.20088862	     37.29560079	     -7.50487703	    -29.79163301	     12.91305080	    -16.05313641	     26.49553994	    -11.65022651	      0.46243441	     27.89831526	     36.33751964	     -7.50487703	    -41.71859243	     -3.58706851	     -7.29836500	      0.93913682	    -12.24336388	     -1.57307492	     40.79554073	     90.00000001	      0.00000000	      0.00000000	     22.13994986	    -15.84684529	     -1.77248580	     55.16305838	     90.00000001	      0.00000000	      0.00000000
      2.70000000	     16.16126364	      8.36787578	      1.21705201	      0.87978075	      0.88282518	      0.16395463	     22.59100535	    -11.28738411	    -39.72012397	     37.39262856	    -14.22677120	      0.65262448	     17.77142588	     36.93806789	     -7.50480577	    -29.79975315	     12.10802902	    -15.96342698	     28.46592334	    -12.02837148	      0.49682409	     25.06995356	     35.85750186	     -7.50480577	    -41.56288731	     -2.94317995	     -7.12117515	      0.98039182	    -12.37876117	     -1.63439318	     40.58628968	     90.00000001	      0.00000000	      0.00000000	     21.58037007	    -15.62648493	     -2.02095328	     55.51691646	     90.00000001	      0.00000000	      0.00000000
      2.71000000	     16.38418275	      7.88399246	      1.46242956	      0.89493794	      0.88336793	      0.16466258	     22.07330103	    -10.64373384	    -39.71039467	     38.75624071	    -15.11261767	      0.67642401	     17.73077805	     36.49652543	     -7.50473858	    -29.80263897	     11.09256132	    -15.81367092	     30.67952992	    -12.23364605	      0.53545881	     22.38475109	     35.37823562	     -7.50473858	    -41.52626355	     -2.23894909	     -6.90850082	      1.03186274	    -12.52994082	     -1.58728816	     40.40523119	     90.00000001	      0.00000000	      0.00000000	     21.00236988	    -15.40445506	     -2.23522250	     55.68368581	     90.00000001	      0.00000000	      0.00000000
      2.72000000	     16.76615703	      7.15419814	      1.82647431	      0.91010650	      0.88459868	      0.16542457	     21.14510012	     -9.72480785	    -39.69421767	     39.91487088	    -15.71514037	      0.69664592	     18.14050976	     35.62472188	     -7.50463237	    -29.80592186	      9.72051744	    -15.59096357	     33.10013520	    -12.40079073	      0.57770634	     19.43308306	     34.71644301	     -7.50463237	    -41.66893631	     -1.24236756	     -6.66486888	      1.14240141	    -12.74150989	     -1.38278203	     40.25708383	     90.00000001	      0.00000000	      0.00000000	     20.34847654	    -15.15391385	     -2.47455361	     55.79405902	     90.00000001	      0.00000000	      0.00000000
      2.73000000	     17.31595018	      6.26186461	      2.27314916	      0.92517050	      0.88646187	      0.16630555	     19.79469833	     -8.67406747	    -39.67334792	     40.89976880	    -15.90359959	      0.71383563	     18.83073071	     34.67139930	     -7.50453270	    -29.80599073	      8.08283185	    -15.37648830	     35.66954749	    -12.57040172	      0.62255105	     16.55356135	     34.10542621	     -7.50453270	    -42.00080699	     -0.06505360	     -6.37700148	      1.29266040	    -12.97113489	     -1.12422438	     40.20712620	     90.00000001	      0.00000000	      0.00000000	     19.68433866	    -14.92829696	     -2.64787973	     55.83632101	     90.00000001	      0.00000000	      0.00000000
      2.74000000	     18.04560803	      5.07000873	      2.82269445	      0.93998382	      0.88897197	      0.16734638	     17.95657546	     -7.20649942	    -39.64895962	     41.42485459	    -15.69476861	      0.72300010	     19.58900800	     33.22159629	     -7.50434039	    -29.80035047	      5.99557177	    -15.21091406	     38.37803330	    -12.65654125	      0.66982304	     14.25311718	     33.56581504	     -7.50434039	    -42.55123207	      1.42425847	     -5.97437501	      1.50250997	    -13.27332360	     -0.64862034	     40.25641994	     90.00000001	      0.00000000	      0.00000000	     19.03584699	    -14.68208905	     -2.81098179	     55.78303973	     90.00000001	      0.00000000	      0.00000000
